<svg width="146" height="50" viewBox="0 0 146 50" fill="none" xmlns="http://www.w3.org/2000/svg">
<g clip-path="url(#clip0_29_207)">
<path d="M22.0361 3.20703C9.95486 3.20703 0.160645 13.001 0.160645 25.0822C0.160645 37.1639 9.95486 46.957 22.0361 46.957C34.1186 46.957 43.9117 37.1639 43.9117 25.0822C43.9117 13.0018 34.1186 3.20808 22.0358 3.20808L22.0361 3.20703ZM32.068 34.7572C31.6761 35.3999 30.835 35.6036 30.1924 35.2092C25.0563 32.0719 18.5906 31.3614 10.976 33.1011C10.2422 33.2683 9.51078 32.8085 9.3436 32.0745C9.17563 31.3405 9.63355 30.6091 10.3692 30.4419C18.7021 28.5381 25.8499 29.3578 31.6161 32.8817C32.2587 33.2761 32.4624 34.1146 32.068 34.7572ZM34.7455 28.8009C34.2518 29.6034 33.2017 29.8568 32.3997 29.363C26.5196 25.7488 17.5564 24.7021 10.6014 26.8133C9.69938 27.0857 8.74671 26.5774 8.47295 25.677C8.20128 24.775 8.70988 23.8241 9.61031 23.5498C17.5548 21.1393 27.4313 22.307 34.1839 26.4564C34.9858 26.9501 35.2392 28.0003 34.7455 28.8012V28.8009ZM34.9754 22.5985C27.925 18.4109 16.2929 18.0258 9.56146 20.0688C8.48053 20.3967 7.33742 19.7864 7.00985 18.7055C6.68228 17.6241 7.29197 16.4817 8.37369 16.1531C16.1009 13.8074 28.9464 14.2606 37.0636 19.0793C38.0379 19.6564 38.3566 20.912 37.7793 21.883C37.2046 22.8553 35.9455 23.1758 34.9764 22.5985H34.9754ZM59.6764 23.4009C55.8991 22.5003 55.2278 21.8681 55.2278 20.5398C55.2278 19.2849 56.4085 18.4404 58.1665 18.4404C59.8697 18.4404 61.5572 19.0817 63.3283 20.4019C63.3805 20.4418 63.4484 20.4578 63.5137 20.4473C63.5816 20.4374 63.6391 20.4011 63.6783 20.3465L65.5225 17.7468C65.5983 17.6397 65.5774 17.4921 65.4755 17.4104C63.3674 15.7195 60.9956 14.8974 58.2214 14.8974C54.1437 14.8974 51.2938 17.3448 51.2938 20.8465C51.2938 24.6015 53.7519 25.9311 57.9994 26.9575C61.612 27.79 62.2233 28.4874 62.2233 29.734C62.2233 31.1158 60.9903 31.9752 59.0051 31.9752C56.8004 31.9752 55.0005 31.2308 52.9891 29.491C52.9395 29.4466 52.8716 29.4283 52.8089 29.431C52.741 29.4362 52.6809 29.4675 52.6391 29.5172L50.5702 31.9779C50.484 32.0823 50.4945 32.2339 50.5938 32.3227C52.9343 34.4124 55.8129 35.5148 58.9215 35.5148C63.3152 35.5148 66.1547 33.1142 66.1547 29.397C66.1625 26.2605 64.2843 24.5234 59.6842 23.4043L59.6764 23.4009ZM76.0967 19.6759C74.1924 19.6759 72.6303 20.4262 71.3399 21.9634V20.2331C71.3399 20.0965 71.2302 19.9852 71.0944 19.9852H67.7115C67.5757 19.9852 67.466 20.0965 67.466 20.2331V39.4592C67.466 39.5951 67.5757 39.7074 67.7115 39.7074H71.0944C71.2302 39.7074 71.3399 39.5951 71.3399 39.4592V33.3911C72.6303 34.8356 74.1924 35.5435 76.0967 35.5435C79.6363 35.5435 83.2202 32.819 83.2202 27.6105C83.2254 22.401 79.6415 19.6757 76.0993 19.6757L76.0967 19.6759ZM79.2862 27.6105C79.2862 30.2616 77.6536 32.1137 75.3131 32.1137C73.0013 32.1137 71.2563 30.1781 71.2563 27.6105C71.2563 25.0427 73.0013 23.1076 75.3131 23.1076C77.6144 23.1073 79.2862 25.0007 79.2862 27.6103V27.6105ZM92.4021 19.6759C87.8438 19.6759 84.2729 23.1857 84.2729 27.6672C84.2729 32.1006 87.8203 35.5723 92.3473 35.5723C96.9213 35.5723 100.503 32.0745 100.503 27.6105C100.503 23.1617 96.9448 19.6765 92.4021 19.6765V19.6759ZM92.4021 32.1398C89.978 32.1398 88.1495 30.1911 88.1495 27.6092C88.1495 25.0156 89.9153 23.1335 92.3473 23.1335C94.7871 23.1335 96.6261 25.0814 96.6261 27.6659C96.6261 30.259 94.8498 32.1398 92.4021 32.1398ZM110.236 19.9852H106.513V16.1803C106.513 16.0439 106.404 15.9327 106.268 15.9327H102.885C102.749 15.9327 102.637 16.0439 102.637 16.1803V19.9852H101.012C100.876 19.9852 100.766 20.0965 100.766 20.2331V23.1397C100.766 23.2761 100.876 23.3876 101.012 23.3876H102.637V30.9095C102.637 33.9475 104.149 35.4887 107.135 35.4887C108.347 35.4887 109.353 35.2379 110.301 34.6998C110.379 34.658 110.426 34.5744 110.426 34.4856V31.7166C110.426 31.6331 110.382 31.5521 110.309 31.5077C110.236 31.4606 110.144 31.458 110.068 31.4972C109.418 31.8237 108.789 31.9752 108.083 31.9752C106.999 31.9752 106.513 31.4815 106.513 30.3792V23.3889H110.236C110.372 23.3889 110.481 23.2776 110.481 23.141V20.2347C110.486 20.0981 110.377 19.9868 110.238 19.9868L110.236 19.9852ZM123.203 20.0001V19.5328C123.203 18.158 123.73 17.5449 124.911 17.5449C125.616 17.5449 126.183 17.6849 126.818 17.8965C126.896 17.9211 126.977 17.9088 127.04 17.862C127.105 17.8153 127.142 17.7403 127.142 17.6609V14.811C127.142 14.702 127.074 14.6057 126.967 14.5735C126.298 14.3742 125.441 14.1697 124.156 14.1697C121.035 14.1697 119.381 15.9287 119.381 19.2549V19.9706H117.756C117.62 19.9706 117.508 20.0819 117.508 20.2182V23.1397C117.508 23.2761 117.62 23.3876 117.756 23.3876H119.381V34.9871C119.381 35.1256 119.493 35.2353 119.629 35.2353H123.009C123.148 35.2353 123.258 35.1256 123.258 34.9871V23.3884H126.416L131.253 34.9871C130.705 36.2044 130.164 36.4473 129.428 36.4473C128.832 36.4473 128.202 36.2697 127.562 35.9171C127.502 35.8857 127.429 35.8805 127.367 35.8988C127.301 35.9223 127.246 35.9693 127.22 36.032L126.073 38.5476C126.019 38.6677 126.066 38.8062 126.181 38.8689C127.377 39.5167 128.456 39.7936 129.791 39.7936C132.288 39.7936 133.67 38.6285 134.884 35.4991L140.751 20.3387C140.783 20.2624 140.772 20.1762 140.725 20.1085C140.681 20.0414 140.605 20.0009 140.524 20.0009H137.003C136.896 20.0009 136.802 20.068 136.768 20.167L133.16 30.468L129.211 20.1602C129.174 20.0644 129.083 20.0009 128.981 20.0009H123.203V20.0001ZM115.685 19.9852H112.302C112.166 19.9852 112.054 20.0965 112.054 20.2331V34.9871C112.054 35.1256 112.166 35.2353 112.302 35.2353H115.685C115.821 35.2353 115.933 35.1256 115.933 34.9871V20.2342C115.933 20.0976 115.823 19.9863 115.685 19.9863V19.9852ZM114.013 13.2669C112.673 13.2669 111.586 14.3515 111.586 15.6913C111.586 17.0319 112.673 18.1178 114.013 18.1178C115.353 18.1178 116.437 17.0319 116.437 15.6913C116.437 14.3517 115.35 13.2669 114.013 13.2669ZM143.641 24.7293C142.303 24.7293 141.261 23.6543 141.261 22.349C141.261 21.0437 142.316 19.9565 143.654 19.9565C144.991 19.9565 146.033 21.0312 146.033 22.3354C146.033 23.6407 144.978 24.7293 143.641 24.7293ZM143.654 20.1932C142.434 20.1932 141.512 21.1623 141.512 22.349C141.512 23.5352 142.429 24.4913 143.641 24.4913C144.86 24.4913 145.783 23.5229 145.783 22.3354C145.783 21.1492 144.866 20.1932 143.654 20.1932ZM144.181 22.5802L144.855 23.5227H144.286L143.68 22.658H143.16V23.5227H142.685V21.0244H143.797C144.38 21.0244 144.761 21.3214 144.761 21.8213C144.764 22.2309 144.526 22.4812 144.184 22.5802H144.181ZM143.779 21.453H143.16V22.2432H143.779C144.087 22.2432 144.273 22.092 144.273 21.8477C144.273 21.5907 144.087 21.453 143.779 21.453Z" fill="#E6E6E6"/>
</g>
<defs>
<clipPath id="clip0_29_207">
<rect width="145.833" height="50" fill="white" transform="translate(0.083252)"/>
</clipPath>
</defs>
</svg>
