<svg width="101" height="50" viewBox="0 0 101 50" fill="none" xmlns="http://www.w3.org/2000/svg">
<g clip-path="url(#clip0_29_204)">
<path d="M0.667969 36.8698L10.933 20.8971H1.884C1.80731 20.437 1.77445 19.9331 1.77445 19.3744C1.77445 18.8375 1.80731 18.3446 1.884 17.8954H16.5311L16.7174 18.3884L6.37563 34.394H16.071C16.1477 34.8979 16.1806 35.4238 16.1806 35.9496C16.1806 36.4535 16.1477 36.9356 16.071 37.3957H0.854207L0.667969 36.8698Z" fill="#E6E6E6"/>
<path d="M30.2909 24.5454C30.2909 23.0446 29.9075 22.0148 29.1516 21.4232C28.3957 20.8426 27.2892 20.5468 25.8431 20.5468C24.9558 20.5468 24.1232 20.6125 23.3563 20.7549C22.5785 20.8973 21.8335 21.0726 21.0886 21.3027C20.6065 20.4701 20.3655 19.4622 20.3655 18.301C21.231 18.0271 22.1731 17.808 23.2139 17.6546C24.2546 17.5012 25.2515 17.4245 26.2156 17.4245C28.7463 17.4245 30.6744 18.0052 32 19.1555C33.3146 20.3058 33.9829 22.1572 33.9829 24.6878V36.892C33.0955 37.0892 32.0219 37.3083 30.7511 37.5164C29.4803 37.7355 28.1875 37.8341 26.8729 37.8341C25.635 37.8341 24.5066 37.7246 23.5097 37.4945C22.5127 37.2644 21.6582 36.9029 20.9571 36.388C20.256 35.8841 19.7192 35.2377 19.3357 34.4489C18.9523 33.6602 18.7661 32.7071 18.7661 31.6006C18.7661 30.516 18.9852 29.552 19.4343 28.7303C19.8725 27.9087 20.4751 27.2185 21.2419 26.6817C21.9978 26.1339 22.8743 25.7286 23.8712 25.4657C24.8572 25.2027 25.8979 25.0603 26.9934 25.0603C27.8041 25.0603 28.4724 25.0822 28.9873 25.1151C29.5022 25.148 29.9404 25.2027 30.3019 25.2466V24.5454H30.2909ZM30.2909 28.2373C29.9075 28.1826 29.4255 28.1387 28.8449 28.084C28.2642 28.0292 27.7712 28.0073 27.3659 28.0073C25.7883 28.0073 24.5942 28.3031 23.7726 28.8837C22.9509 29.4643 22.5347 30.3517 22.5347 31.5458C22.5347 32.3017 22.6771 32.9043 22.951 33.3315C23.2248 33.7588 23.5754 34.0874 23.9917 34.3175C24.408 34.5475 24.8681 34.69 25.383 34.7338C25.8869 34.7886 26.369 34.8105 26.8291 34.8105C27.4097 34.8105 28.0123 34.7776 28.6367 34.7119C29.2612 34.6461 29.8089 34.5585 30.2909 34.427V28.2373Z" fill="#E6E6E6"/>
<path d="M38.091 17.8962C38.3429 17.8414 38.6059 17.8086 38.8688 17.7867C39.1317 17.7648 39.4056 17.7538 39.6904 17.7538C39.9424 17.7538 40.2053 17.7648 40.4902 17.7867C40.764 17.8086 41.0379 17.8524 41.2899 17.8962C41.3118 17.951 41.3447 18.1044 41.3885 18.3673C41.4214 18.6302 41.4652 18.9151 41.498 19.2218C41.5309 19.5286 41.5747 19.8134 41.6076 20.0982C41.6405 20.3831 41.6624 20.5583 41.6624 20.635C41.9143 20.2297 42.2211 19.8353 42.5717 19.4519C42.9222 19.0684 43.3495 18.7288 43.8425 18.4221C44.3354 18.1153 44.8942 17.8743 45.5186 17.699C46.1431 17.5237 46.8332 17.4361 47.5891 17.4361C48.7285 17.4361 49.7911 17.6223 50.7662 18.0058C51.7412 18.3892 52.5738 18.9698 53.2749 19.7696C53.976 20.5693 54.5128 21.5881 54.9072 22.8151C55.3016 24.0421 55.4988 25.4991 55.4988 27.1753C55.4988 30.5276 54.5895 33.1459 52.7819 35.0302C50.9633 36.9145 48.3998 37.8676 45.0804 37.8676C44.5217 37.8676 43.952 37.8347 43.3714 37.758C42.7908 37.6814 42.2759 37.5828 41.8486 37.4513V46.3908C41.5419 46.4455 41.2242 46.4784 40.8736 46.5003C40.534 46.5222 40.2163 46.5332 39.9424 46.5332C39.6685 46.5332 39.3508 46.5222 39.0112 46.5003C38.6716 46.4784 38.3539 46.4346 38.08 46.3908V17.8962H38.091ZM41.8596 34.2086C42.3416 34.3838 42.8346 34.5153 43.3385 34.592C43.8425 34.6687 44.4998 34.7015 45.3214 34.7015C46.2307 34.7015 47.0742 34.5591 47.8302 34.2633C48.5861 33.9675 49.2434 33.5184 49.7911 32.9158C50.3389 32.3023 50.7662 31.5355 51.0839 30.6152C51.4016 29.695 51.5549 28.5885 51.5549 27.3287C51.5549 25.302 51.1825 23.6915 50.4375 22.4974C49.6925 21.3033 48.4656 20.7117 46.7675 20.7117C46.1321 20.7117 45.5296 20.8213 44.938 21.0513C44.3574 21.2814 43.8315 21.621 43.3823 22.0811C42.9222 22.5412 42.5607 23.1109 42.2759 23.812C41.991 24.5132 41.8596 25.3348 41.8596 26.2989V34.2086Z" fill="#E6E6E6"/>
<path d="M60.1876 20.8533H57.7117C57.657 20.6452 57.6241 20.4151 57.6022 20.1522C57.5803 19.8892 57.5693 19.6263 57.5693 19.3744C57.5693 19.1224 57.5803 18.8595 57.6022 18.5965C57.6241 18.3336 57.6679 18.0926 57.7117 17.8954H63.8795V37.4066C63.6056 37.4614 63.2879 37.4943 62.9483 37.5162C62.6087 37.5381 62.291 37.5491 62.0171 37.5491C61.7652 37.5491 61.4694 37.5381 61.1188 37.5162C60.7792 37.4943 60.4615 37.4505 60.1876 37.4066V20.8533Z" fill="#E6E6E6"/>
<path d="M71.9754 28.5772C72.0302 30.7025 72.5779 32.2691 73.6297 33.2551C74.6814 34.2411 76.237 34.7341 78.2856 34.7341C80.0823 34.7341 81.8022 34.4164 83.4236 33.781C83.6318 34.1644 83.7961 34.6245 83.9166 35.1723C84.0481 35.72 84.1138 36.2568 84.1467 36.7936C83.3141 37.1442 82.3938 37.4181 81.3859 37.5934C80.389 37.7687 79.2716 37.8563 78.0556 37.8563C76.2808 37.8563 74.758 37.6043 73.4872 37.1113C72.2164 36.6184 71.1757 35.9172 70.354 35.0189C69.5324 34.1206 68.9299 33.0579 68.5464 31.82C68.163 30.593 67.9768 29.2455 67.9768 27.7665C67.9768 26.3204 68.163 24.973 68.5245 23.7131C68.886 22.4533 69.4557 21.3687 70.2116 20.4375C70.9675 19.5173 71.9316 18.7723 73.0819 18.2355C74.2322 17.6877 75.6016 17.4139 77.1682 17.4139C78.5157 17.4139 79.6879 17.6439 80.7067 18.104C81.7255 18.5642 82.5691 19.1886 83.2593 19.9883C83.9385 20.7881 84.4644 21.7412 84.8149 22.8367C85.1655 23.9432 85.3517 25.1373 85.3517 26.43C85.3517 26.7806 85.3408 27.164 85.3079 27.5474C85.286 27.9418 85.2531 28.2814 85.2312 28.5553H71.9754V28.5772ZM81.6379 25.7617C81.6379 25.0496 81.5393 24.3704 81.3531 23.7241C81.1668 23.0777 80.882 22.519 80.5205 22.037C80.148 21.5549 79.6879 21.1715 79.1182 20.8757C78.5485 20.5799 77.8693 20.4375 77.0805 20.4375C75.5359 20.4375 74.3527 20.9086 73.5201 21.8398C72.6985 22.7819 72.1945 24.0856 72.0192 25.7617H81.6379Z" fill="#E6E6E6"/>
<path d="M89.5148 17.8954C89.7887 17.8406 90.0626 17.8078 90.3145 17.7858C90.5665 17.7639 90.8294 17.753 91.1143 17.753C91.3881 17.753 91.673 17.7639 91.9468 17.7858C92.2207 17.8078 92.4836 17.8516 92.7028 17.8954C92.7794 18.2788 92.8561 18.7718 92.9328 19.3963C93.0095 20.0207 93.0424 20.5466 93.0424 20.9738C93.5792 20.1084 94.2803 19.3634 95.1567 18.728C96.0331 18.0926 97.1506 17.7749 98.52 17.7749C98.7281 17.7749 98.9363 17.7858 99.1444 17.7968C99.3635 17.8078 99.5388 17.8297 99.6922 17.8516C99.747 18.0816 99.7798 18.3227 99.8017 18.5746C99.8236 18.8266 99.8346 19.0895 99.8346 19.3744C99.8346 19.6811 99.8127 19.9988 99.7798 20.3275C99.747 20.6561 99.6922 20.9738 99.6484 21.2806C99.4402 21.2258 99.2321 21.2039 99.0239 21.2039C98.8048 21.2039 98.6405 21.2039 98.509 21.2039C97.8298 21.2039 97.1725 21.3025 96.548 21.4887C95.9236 21.675 95.3649 22.0146 94.8719 22.4966C94.3789 22.9786 93.9845 23.6359 93.6887 24.4795C93.3929 25.3121 93.2505 26.3967 93.2505 27.7113V37.4067C92.9766 37.4614 92.6589 37.4943 92.3193 37.5162C91.9797 37.5381 91.662 37.5491 91.3881 37.5491C91.1143 37.5491 90.7965 37.5381 90.4569 37.5162C90.1173 37.4943 89.7887 37.4505 89.4819 37.4067V17.8954H89.5148Z" fill="#E6E6E6"/>
<path d="M67.4617 6.41476H63.7808L66.3881 3.80741C66.18 3.52258 65.9499 3.2487 65.7089 2.99673C65.4569 2.74476 65.194 2.5147 64.8982 2.3175L62.2909 4.92485V1.24389C61.9513 1.18912 61.6007 1.15625 61.2392 1.15625H61.2282C60.8667 1.15625 60.5161 1.18912 60.1765 1.24389V4.92485L57.5692 2.3175C57.2843 2.52565 57.0105 2.75571 56.7585 2.99673C56.5065 3.2487 56.2874 3.51162 56.0793 3.80741L58.6976 6.41476H55.0166C55.0166 6.41476 54.929 7.10493 54.929 7.46646C54.929 7.82798 54.9618 8.17855 55.0166 8.51816H58.6976L56.0902 11.1255C56.4956 11.6952 56.9995 12.1991 57.5801 12.6154L60.1875 10.0081V13.689C60.5271 13.7438 60.8776 13.7767 61.2392 13.7767H61.2501C61.6116 13.7767 61.9622 13.7438 62.3018 13.689V10.0081L64.9092 12.6154C65.194 12.4073 65.4679 12.1772 65.7198 11.9362C65.9718 11.6842 66.2019 11.4213 66.3991 11.1255L63.7917 8.51816H67.4727C67.5275 8.17855 67.5603 7.82798 67.5603 7.46646V7.4555C67.5494 7.10493 67.5275 6.75437 67.4617 6.41476ZM62.8167 7.47741C62.8167 7.94849 62.7291 8.39765 62.5757 8.81395C62.1594 8.96732 61.7102 9.05496 61.2392 9.05496C60.7681 9.05496 60.3189 8.96732 59.9026 8.81395C59.7493 8.39765 59.6616 7.94849 59.6616 7.47741V7.46646C59.6616 6.99538 59.7493 6.54622 59.9026 6.12992C60.3189 5.97655 60.7681 5.88891 61.2392 5.88891C61.7102 5.88891 62.1594 5.97655 62.5757 6.12992C62.7291 6.54622 62.8167 6.99538 62.8167 7.47741Z" fill="#E6E6E6"/>
</g>
<defs>
<clipPath id="clip0_29_204">
<rect width="100" height="50" fill="white" transform="translate(0.666748)"/>
</clipPath>
</defs>
</svg>
